<svg
	id="outputsvg"
	xmlns="http://www.w3.org/2000/svg"
	width="128"
	height="128"
	viewBox="0 0 1280 1280"
	preserveAspectRatio="xMidYMid meet"
	title="iplogo.svg (879Byte)"
>
	<g id="layer101" fill="#f04747" stroke="none">
		<path
			d="M0 640 l0 -640 640 0 640 0 0 640 0 640 -640 0 -640 0 0 -640z"
		></path>
	</g>
	<g id="layer102" fill="#fffefe" stroke="none">
		<path
			d="M553 911 c84 -87 128 -155 110 -171 -4 -3 -35 -17 -68 -29 -82 -30 -146 -73 -204 -137 -57 -63 -75 -108 -68 -173 20 -177 372 -172 571 10 62 56 106 135 106 188 -1 117 -144 246 -380 345 -166 69 -166 70 -67 -33z m289 -288 c39 -35 11 -103 -43 -103 -35 0 -59 24 -59 57 0 55 62 83 102 46z m-140 -70 c38 -34 11 -103 -40 -103 -54 0 -81 62 -45 102 20 22 61 23 85 1z m-140 -70 c22 -20 24 -66 2 -87 -36 -37 -104 -7 -104 45 0 50 64 76 102 42z"
		></path>
	</g>
</svg>